<?xml version="1.0" encoding="UTF-8" standalone="no"?>
<!-- Created with Inkscape (http://www.inkscape.org/) -->

<svg
   width="20mm"
   height="20mm"
   viewBox="0 0 20 20"
   version="1.1"
   id="svg1139"
   sodipodi:docname="nas.svg"
   inkscape:version="1.4.2 (ebf0e940d0, 2025-05-08)"
   xmlns:inkscape="http://www.inkscape.org/namespaces/inkscape"
   xmlns:sodipodi="http://sodipodi.sourceforge.net/DTD/sodipodi-0.dtd"
   xmlns="http://www.w3.org/2000/svg"
   xmlns:svg="http://www.w3.org/2000/svg"
   xmlns:rdf="http://www.w3.org/1999/02/22-rdf-syntax-ns#"
   xmlns:cc="http://creativecommons.org/ns#"
   xmlns:dc="http://purl.org/dc/elements/1.1/">
  <title
     id="title204">Network drive icon</title>
  <defs
     id="defs1133">
    <clipPath
       clipPathUnits="userSpaceOnUse"
       id="clipPath5238-1-8-9-8-4">
      <rect
         transform="rotate(-90)"
         style="color:#000000;display:inline;overflow:visible;visibility:visible;fill:#ffffff;fill-opacity:1;fill-rule:evenodd;stroke:none;enable-background:accumulate"
         id="rect5240-2-3-9-5-1"
         width="315.35437"
         height="744.09448"
         x="-1016.9291"
         y="1461.6753" />
    </clipPath>
    <clipPath
       clipPathUnits="userSpaceOnUse"
       id="clipPath5242-3-9-7-7">
      <rect
         transform="rotate(-90)"
         style="color:#000000;display:inline;overflow:visible;visibility:visible;fill:#ffffff;fill-opacity:1;fill-rule:evenodd;stroke:none;enable-background:accumulate"
         id="rect5244-3-2-6-6"
         width="315.35437"
         height="744.09448"
         x="-1016.9291"
         y="1461.6753" />
    </clipPath>
  </defs>
  <sodipodi:namedview
     id="base"
     pagecolor="#ffffff"
     bordercolor="#666666"
     borderopacity="1.0"
     inkscape:pageopacity="0.0"
     inkscape:pageshadow="2"
     inkscape:zoom="6.9717708"
     inkscape:cx="39.444785"
     inkscape:cy="37.795276"
     inkscape:document-units="mm"
     inkscape:current-layer="layer1"
     showgrid="false"
     inkscape:window-width="944"
     inkscape:window-height="1041"
     inkscape:window-x="0"
     inkscape:window-y="0"
     inkscape:window-maximized="0"
     inkscape:snap-bbox="true"
     inkscape:bbox-paths="true"
     inkscape:snap-bbox-edge-midpoints="true"
     inkscape:bbox-nodes="true"
     inkscape:snap-bbox-midpoints="true"
     inkscape:object-paths="true"
     inkscape:snap-intersection-paths="true"
     inkscape:snap-smooth-nodes="true"
     inkscape:snap-midpoints="true"
     fit-margin-left="0"
     fit-margin-top="0"
     fit-margin-right="0"
     fit-margin-bottom="0"
     inkscape:showpageshadow="2"
     inkscape:pagecheckerboard="0"
     inkscape:deskcolor="#d1d1d1" />
  <metadata
     id="metadata1136">
    <rdf:RDF>
      <cc:Work
         rdf:about="">
        <dc:format>image/svg+xml</dc:format>
        <dc:type
           rdf:resource="http://purl.org/dc/dcmitype/StillImage" />
        <dc:title>Network drive icon</dc:title>
        <dc:date>2018-09-30</dc:date>
        <dc:creator>
          <cc:Agent>
            <dc:title>m1981</dc:title>
          </cc:Agent>
        </dc:creator>
        <dc:rights>
          <cc:Agent>
            <dc:title>Public domain</dc:title>
          </cc:Agent>
        </dc:rights>
        <dc:publisher>
          <cc:Agent>
            <dc:title>Inkscape</dc:title>
          </cc:Agent>
        </dc:publisher>
        <dc:subject>
          <rdf:Bag>
            <rdf:li>icon</rdf:li>
            <rdf:li>flat</rdf:li>
            <rdf:li>IT</rdf:li>
            <rdf:li>computer</rdf:li>
            <rdf:li>storage</rdf:li>
            <rdf:li>drive</rdf:li>
            <rdf:li>network</rdf:li>
            <rdf:li />
          </rdf:Bag>
        </dc:subject>
        <dc:description>A network drive icon.</dc:description>
      </cc:Work>
    </rdf:RDF>
  </metadata>
  <g
     inkscape:label="Calque 1"
     inkscape:groupmode="layer"
     id="layer1"
     transform="translate(-59.905655,-182.0442)">
    <path
       style="display:inline;opacity:1;vector-effect:none;fill:#4d4d4d;fill-opacity:1;fill-rule:evenodd;stroke:none;stroke-width:0.815852px;stroke-linecap:butt;stroke-linejoin:miter;stroke-miterlimit:4;stroke-dasharray:none;stroke-dashoffset:0;stroke-opacity:1;marker:none"
       d="m 64.702527,184.43792 c -0.550171,0 -0.699903,0.61363 -0.992747,1.21582 l -1.384728,2.28979 h 12.943696 a 0.61746538,0.61746538 0 0 1 0,1.23492 H 62.2661 c -0.459759,0 -0.85951,0.26118 -1.066009,0.64059 -0.03852,0.0712 -0.06935,0.14615 -0.09405,0.22478 -0.0064,0.0185 -0.01236,0.0355 -0.0185,0.0543 -0.02158,0.0866 -0.03484,0.17762 -0.03672,0.27107 -8.9e-5,0.007 -0.0016,0.009 -0.0016,0.0154 a 0.61676872,0.61676872 0 0 1 -0.0016,0.11466 v 3.00685 c 0,0.67363 0.542215,1.21582 1.215807,1.21582 h 7.025595 v 1.22857 h -1.023041 -0.210297 v 1.23971 h -3.908789 v 1.23331 h 3.908789 v 1.22696 h 0.210297 3.489666 0.210298 v -1.22696 h 3.908757 v -1.23331 h -3.908757 v -1.23975 h -0.210298 -1.022997 v -1.22853 h 6.815231 c 0.673632,0 1.215807,-0.54221 1.215807,-1.21582 v -3.11359 c 0,-0.21677 -0.0607,-0.41695 -0.15942,-0.59278 h 0.0064 l -0.05427,-0.0876 -2.453937,-4.05693 c -0.292318,-0.60219 -0.441992,-1.21582 -0.992158,-1.21582 z m -0.529049,6.27664 a 1.2334141,1.2334141 0 0 1 1.233357,1.23335 1.2334141,1.2334141 0 0 1 -1.233357,1.23332 1.2334141,1.2334141 0 0 1 -1.233348,-1.23332 1.2334141,1.2334141 0 0 1 1.233348,-1.23335 z m 9.425319,0.0247 a 0.61670705,0.61670705 0 0 1 0.616678,0.61668 0.61670705,0.61670705 0 0 1 -0.616678,0.61668 0.61670705,0.61670705 0 0 1 -0.616644,-0.61668 0.61670705,0.61670705 0 0 1 0.616644,-0.61668 z m 1.644457,0 a 0.61670705,0.61670705 0 0 1 0.616669,0.61668 0.61670705,0.61670705 0 0 1 -0.616669,0.61668 0.61670705,0.61670705 0 0 1 -0.616646,-0.61668 0.61670705,0.61670705 0 0 1 0.616646,-0.61668 z m 1.64448,0 a 0.61670705,0.61670705 0 0 1 0.616644,0.61668 0.61670705,0.61670705 0 0 1 -0.616644,0.61668 0.61670705,0.61670705 0 0 1 -0.61668,-0.61668 0.61670705,0.61670705 0 0 1 0.61668,-0.61668 z m -4.933386,1.64446 a 0.61670705,0.61670705 0 0 1 0.616679,0.61668 0.61670705,0.61670705 0 0 1 -0.616679,0.61667 0.61670705,0.61670705 0 0 1 -0.616675,-0.61667 0.61670705,0.61670705 0 0 1 0.616675,-0.61668 z m 1.644449,0 a 0.61670705,0.61670705 0 0 1 0.616678,0.61668 0.61670705,0.61670705 0 0 1 -0.616678,0.61667 0.61670705,0.61670705 0 0 1 -0.616644,-0.61667 0.61670705,0.61670705 0 0 1 0.616644,-0.61668 z m 1.644457,0 a 0.61670705,0.61670705 0 0 1 0.616669,0.61668 0.61670705,0.61670705 0 0 1 -0.616669,0.61667 0.61670705,0.61670705 0 0 1 -0.616646,-0.61667 0.61670705,0.61670705 0 0 1 0.616646,-0.61668 z m 1.64448,0 a 0.61670705,0.61670705 0 0 1 0.616644,0.61668 0.61670705,0.61670705 0 0 1 -0.616644,0.61667 0.61670705,0.61670705 0 0 1 -0.61668,-0.61667 0.61670705,0.61670705 0 0 1 0.61668,-0.61668 z"
       id="path6177-8"
       inkscape:connector-curvature="0" />
  </g>
</svg>
